<svg width="67" height="28" viewBox="0 0 67 28" fill="none" xmlns="http://www.w3.org/2000/svg">
<path d="M61.55 2.90003C62.1272 1.98157 62.8944 1.19734 63.8 0.600034C64.3 0.250034 64.6 0.250034 64.9 0.900034C65.3 1.85003 65.65 2.85003 65.35 3.90003C65.2954 4.07812 65.2851 4.26683 65.3199 4.4498C65.3548 4.63278 65.4338 4.80448 65.55 4.95003C65.85 5.35003 66.1 5.75003 66.35 6.10003C66.6902 6.53192 66.9109 7.04569 66.9899 7.5898C67.0689 8.13392 67.0034 8.68923 66.8 9.20004C66.6164 9.69594 66.5817 10.2347 66.7 10.75C66.7999 11.245 66.7999 11.755 66.7 12.25C66.6596 12.6207 66.5095 12.971 66.2691 13.256C66.0286 13.541 65.7086 13.7478 65.35 13.85C64.7104 13.9717 64.1396 14.3285 63.75 14.85C63.7028 14.9268 63.6365 14.9902 63.5577 15.034C63.4789 15.0778 63.3901 15.1005 63.3 15.1C62.7 15.2 61.2 13.85 61.2 13.25V12.95C61.25 11.15 61.15 11 59.5 10.25C59.1546 10.1282 58.8452 9.92198 58.6 9.65003C58.3 9.25004 57.9 9.30004 57.45 9.45004C57 9.60004 56.75 9.90003 56.8 10.4C56.9508 11.6105 57.0009 12.8313 56.95 14.05C56.9533 14.1891 56.9875 14.3257 57.05 14.45C58.6 16.7 59.2 19.35 59.95 21.9C60.55 23.85 61.65 24.9 63.65 25.05C63.97 25.0756 64.2876 25.1257 64.6 25.2C65.0109 25.2661 65.3926 25.4538 65.6956 25.7391C65.9987 26.0243 66.2092 26.3939 66.3 26.8C66.65 27.85 66.45 28.1 65.4 28.1H62.15C61.7292 28.1213 61.3167 27.9778 61 27.7C60.4939 27.273 59.9191 26.9348 59.3 26.7C58.6155 26.4474 58.0231 25.9944 57.6 25.4C57.0143 24.5818 56.3439 23.8276 55.6 23.15C54.2 21.7 52.7 20.3 51.4 18.8C50.4103 17.7779 49.8395 16.4222 49.8 15C49.8 14.55 49.7 14.35 49.2 14.55C49.0503 14.645 48.8773 14.6969 48.7 14.7C47.3 14.7 46.6 15.55 46.1 16.8C45.65 17.85 45.05 18.85 44.5 19.9C44.1881 20.5573 44.0178 21.2728 44 22C44 23.2 44.3 23.6 45.4 24C46.1 24.25 46.75 24.5 47.1 25.2C47.5 26 47.4 26.2 46.55 26.25H43.15C42.954 26.2695 42.7568 26.2268 42.5864 26.1281C42.4159 26.0294 42.2807 25.8797 42.2 25.7L41.3 24.2C41.0347 23.8087 40.8648 23.3605 40.8041 22.8916C40.7433 22.4227 40.7932 21.9461 40.95 21.5C41.1664 20.6318 41.1835 19.7258 41 18.85C40.8739 18.2401 40.8848 17.6098 41.0318 17.0046C41.1788 16.3993 41.4582 15.8342 41.85 15.35C42.15 15 42.15 14.85 41.65 14.75C39.6054 14.3157 37.6233 13.627 35.75 12.7C35.7367 12.7 35.724 12.6948 35.7146 12.6854C35.7052 12.676 35.7 12.6633 35.7 12.65C34.1 12.05 33.8 12.15 33.35 13.8C32.95 15.2 32.55 16.6 32.25 18.05C31.9 19.65 32.3 21.15 32.8 22.65C33 23.25 33.6 23.2 34.05 23.35C35.05 23.65 35.9 24.05 36.3 25.1C36.65 25.9 36.6 26 35.75 26C34.9 26 34.05 25.95 33.15 26C32.3905 26.0138 31.6493 25.7667 31.05 25.3C28.65 23.7 27.95 21.25 27.75 18.6C27.65 16.95 26.75 15.65 25.7 14.4C25.5 14.15 25.3 14.05 25 14.25C23.9267 14.8418 22.8062 15.3435 21.65 15.75C19.2371 16.602 17.1198 18.1293 15.55 20.15C14.9638 20.8875 14.5842 21.7676 14.45 22.7C14.3 23.6 14.55 24 15.45 24.25C16.35 24.5 16.8 25 16.9 25.95C16.95 26.35 16.8 26.55 16.4 26.55H12.35C12.2174 26.5406 12.0891 26.4994 11.9759 26.4297C11.8628 26.3601 11.7681 26.2641 11.7 26.15C11.0719 25.3724 10.7358 24.3995 10.75 23.4C10.7237 21.6725 10.8745 19.9468 11.2 18.25C11.2667 17.7419 11.4564 17.2577 11.7527 16.8395C12.0489 16.4212 12.4427 16.0816 12.9 15.85C15.85 14.45 17.4 11.8 18.8 9.05004C19.1 8.50004 18.85 8.40003 18.35 8.45004C16.9506 8.6443 15.6248 9.19529 14.5 10.05C13.0271 11.1245 11.6396 12.3113 10.35 13.6C8.9748 14.9969 7.15133 15.8643 5.19998 16.05C1.54998 16.25 -0.150021 14.2 -2.12286e-05 10.9C0.03351 9.77483 0.457802 8.69642 1.19998 7.85004C1.45799 7.51553 1.80985 7.26553 2.21061 7.13194C2.61138 6.99835 3.04287 6.98724 3.44998 7.10004C4.19998 7.30003 4.39998 7.70004 4.09998 8.45004C3.94998 8.75004 3.74998 9.00004 3.59998 9.30004C3.38428 9.60651 3.21574 9.94359 3.09998 10.3C2.54998 11.8 3.29998 12.85 4.84998 13C6.49998 13.15 7.84998 12.45 9.09998 11.45C10.6059 10.2442 11.9503 8.84935 13.1 7.30004C13.9596 6.16874 15.042 5.22568 16.2804 4.5291C17.5188 3.83252 18.8868 3.3972 20.3 3.25003C21.45 3.10003 22.45 2.60003 23.55 2.30003C25.6072 1.67284 27.7495 1.36921 29.9 1.40003C30.896 1.44152 31.8883 1.25333 32.8 0.850034C35.25 -0.149966 37.8 -0.149966 40.35 0.350034C42.35 0.750034 44.35 1.25003 46.3 1.75003C47.4605 1.96627 48.6537 1.93218 49.8 1.65003C51.9943 1.0938 54.2389 0.758795 56.5 0.650034C57.9812 0.577967 59.4576 0.869803 60.8 1.50003C61.8 1.95003 61.8 1.95003 61.55 2.90003Z" fill="black"/>
</svg>
