<svg width="36" height="50" viewBox="0 0 36 50" fill="none" xmlns="http://www.w3.org/2000/svg">
<path d="M28.2034 6.10352e-05H28.008C27.6778 0.187142 27.415 0.473985 27.2571 0.819649C26.968 1.37744 26.7453 1.96741 26.5937 2.57738C26.5612 2.76079 26.4688 2.92818 26.331 3.05321C26.1932 3.17824 26.0179 3.25383 25.8326 3.2681C25.2658 3.36603 24.7288 3.59249 24.2626 3.93018C23.7965 4.26787 23.4135 4.70786 23.1429 5.21656C22.7708 5.87703 22.4526 6.56656 22.1914 7.27841C21.4611 9.17532 20.9006 11.1341 20.2114 13.0465C19.8874 13.9176 19.872 13.9176 18.8949 13.9176C17.7274 13.9176 17.8097 13.7372 17.7943 15.0258C17.7943 15.433 17.9177 15.6392 18.3497 15.6186C18.4834 15.6186 18.684 15.5516 18.7354 15.7269C18.7869 15.9021 18.612 15.9794 18.5091 16.0825C17.8994 16.703 17.1276 17.1388 16.2823 17.3403C15.3051 17.6032 14.3074 17.8093 13.356 18.1289C10.9131 18.9485 8.65543 20.0928 6.89657 22.031C5.86814 23.2348 5.04455 24.6001 4.45886 26.0722C2.57143 30.5258 1.656 35.2166 0.946286 39.9537C0.612 42.1753 0.375429 44.4073 0.195429 46.6547C0.102857 47.7578 0 48.8763 0 50.0001H17.1411C17.1696 49.7732 17.1283 49.543 17.0229 49.3403C16.858 48.929 16.5901 48.5673 16.2451 48.2901C15.9 48.0129 15.4895 47.8296 15.0531 47.7578C14.6931 47.6753 14.652 47.5671 14.8731 47.2836C15.2338 46.8011 15.5103 46.2608 15.6909 45.6856C16.5291 43.2062 16.8531 40.6186 17.2594 38.0568C17.4889 36.1 18.0894 34.2052 19.0286 32.4743C19.7611 31.2002 20.7382 30.0843 21.9034 29.1908C22.3303 28.866 22.3457 28.866 22.4177 29.4176C22.4691 29.7836 22.4794 30.1599 22.5051 30.531C22.6595 32.9662 22.6285 35.4097 22.4126 37.8403C22.2184 39.7242 22.1926 41.6218 22.3354 43.5104C22.5399 45.7029 22.9304 47.874 23.5029 50.0001H30.3429C30.2536 49.4421 29.9973 48.9244 29.6078 48.5157C29.2184 48.107 28.7143 47.8265 28.1623 47.7114C27.5177 47.6087 26.8587 47.6439 26.2286 47.8145C25.92 47.8867 25.7914 47.8145 25.7657 47.4794C25.5529 44.7505 25.7261 42.0051 26.28 39.3248C26.966 36.2305 27.4912 33.1026 27.8537 29.9537C27.9887 28.682 28.3881 27.4528 29.0263 26.3454C29.6383 25.2526 30.1731 24.1186 30.7749 23.0207C31.0138 22.6215 31.1575 22.1724 31.195 21.7084C31.2325 21.2444 31.1626 20.7779 30.9909 20.3454C30.852 19.9794 30.7183 19.6083 30.5486 19.2578C30.0343 18.2526 29.52 17.2578 29.0469 16.2423C28.7949 15.7269 28.8514 15.665 29.412 15.6495C30.2503 15.6495 30.2503 15.6495 30.2657 14.8042C30.2657 14.6908 30.2657 14.5774 30.2657 14.464C30.2657 14.1083 30.132 13.9124 29.7514 13.9485C29.4943 13.9485 29.2371 13.9485 28.9697 13.9485C28.6149 13.9485 28.512 13.799 28.5994 13.4331C28.7729 12.8381 29.1142 12.3061 29.5823 11.901C30.0503 11.4958 30.6252 11.2349 31.2377 11.1495C32.3772 11.0505 33.5251 11.1253 34.6423 11.3712C34.7712 11.4119 34.9109 11.4001 35.0312 11.3384C35.1515 11.2766 35.2427 11.1699 35.2851 11.0413C35.4909 10.5258 35.7171 10.0104 35.9486 9.49491C36.001 9.40345 36.0242 9.29807 36.015 9.19299C36.0058 9.08791 35.9647 8.98818 35.8971 8.90728C34.2514 6.81449 32.4669 4.86089 30.0343 3.60831C29.9168 3.5576 29.8138 3.4782 29.7347 3.37736C29.6557 3.27652 29.6031 3.15744 29.5817 3.03099C29.444 2.29414 29.225 1.57493 28.9286 0.886659C28.7895 0.519965 28.5349 0.208711 28.2034 6.10352e-05V6.10352e-05Z" fill="black"/>
</svg>
